<?xml version="1.0" standalone="no"?><!DOCTYPE svg PUBLIC "-//W3C//DTD SVG 1.1//EN"
        "http://www.w3.org/Graphics/SVG/1.1/DTD/svg11.dtd">
<svg class="icon" width="200px" height="200.00px" viewBox="0 0 1024 1024" version="1.1"
     xmlns="http://www.w3.org/2000/svg">
    <path d="M807.532859 896.078128H216.675483c-32.501322 0-59.169074-26.45941-59.169074-59.169074V187.090946c0-32.501322 26.45941-59.169074 59.169074-59.169074h590.857376c32.501322 0 58.960732 26.45941 58.960732 59.169074v649.818108c0 32.501322-26.667752 59.169074-58.960732 59.169074z"
          fill="#EF6C00"/>
    <path d="M216.675483 187.090946v649.818108h590.649034l0.208342-649.818108z" fill="#FFE0B2"/>
    <path d="M264.385758 232.092777h89.586979v89.378637h-89.586979z" fill="#00897B"/>
    <path d="M264.385758 388.974161h89.586979v89.378637h-89.586979z" fill="#EC407A"/>
    <path d="M264.385758 545.855544h89.586979v89.378637h-89.586979z" fill="#00897B"/>
    <path d="M264.385758 702.736928h89.586979v89.378637h-89.586979zM399.599593 232.092777h89.586979v89.378637h-89.586979z"
          fill="#EC407A"/>
    <path d="M399.599593 388.974161h89.586979v89.378637h-89.586979zM399.599593 545.855544h89.586979v89.378637h-89.586979zM399.599593 702.736928h89.586979v89.378637h-89.586979zM534.813428 232.092777h89.586979v89.378637h-89.586979zM534.813428 388.974161h89.586979v89.378637h-89.586979z"
          fill="#00897B"/>
    <path d="M534.813428 545.855544h89.586979v89.378637h-89.586979z" fill="#EC407A"/>
    <path d="M534.813428 702.736928h89.586979v89.378637h-89.586979zM670.027263 232.092777h89.586979v89.378637h-89.586979zM670.027263 388.974161h89.586979v89.378637h-89.586979zM670.027263 545.855544h89.586979v89.378637h-89.586979z"
          fill="#00897B"/>
    <path d="M670.027263 702.736928h89.586979v89.378637h-89.586979z" fill="#EC407A"/>
</svg>